<?xml version="1.0" encoding="UTF-8"?>
<svg
  xmlns="http://www.w3.org/2000/svg"
  viewBox="417 380 1085 320"
  aria-hidden="true"
>
  <g>
    <path d="M503.4,466.1h212.1l-76.1-76.1h-96.5c-17.8,0-34.9,7.1-47.4,19.6l-48.6,48.6c-12.6,12.6-19.6,29.6-19.6,47.4v88.1h76.1v-127.6Z"/>
    <path d="M651.2,613.9h-212.1l76.1,76.1h96.5c17.8,0,34.9-7.1,47.4-19.6l48.6-48.6c12.6-12.6,19.6-29.6,19.6-47.4v-88.1h-76.1v127.6Z"/>
    <circle cx="577.3" cy="540" r="53.7"/>
  </g>
  <g>
    <path d="M791.3,466.2h58.4c32.9,0,51.9,12.7,51.9,34.4s-10.1,30.4-27.9,36.9c13.1,5.9,20.3,16,20.3,29.8,0,29.3-24.7,46.6-60.6,46.6h-68.4l26.2-147.7ZM853.5,566.2c0-7.8-5.5-12-15-12h-24.9l-5.1,29.1h25.7c11.4,0,19.2-6.3,19.2-17.1ZM840.4,524.6c11.4,0,19.2-6.3,19.2-16.9s-5.5-12-15-12h-20.7l-5.1,28.9h21.5Z"/>
    <path d="M972.9,613.9l2.1-12.2c-9.1,9.1-20.9,14.3-34.8,14.3-24.9,0-39.7-18.1-34.6-46.6l12.1-69.4h38l-11.7,66.7c-1.9,10.5,3.2,16.7,12.4,16.7s19.4-8.4,22.2-21.9l10.9-61.4h38l-20.2,113.9h-34.4Z"/>
    <path d="M1033.6,466.2h111.8l-6.1,33.8h-35.9l-20,113.9h-40.1l20-113.9h-35.9l6.1-33.8Z"/>
    <path d="M1120.5,565.6c0-35.9,24.1-70.7,66.5-70.7s55.1,36.3,48.5,71.3h-77.9c-.4,11.2,5.5,20.7,18.6,20.7s14.8-3.4,20.5-11.6l34.4,11.6c-12.2,18.6-33.1,29.1-58,29.1s-52.5-19.8-52.5-50.4ZM1200.3,540.4c0-9.1-3.4-18.1-15.6-18.1s-19.2,6.8-22.8,18.1h38.4Z"/>
    <path d="M1248.9,564.9c0-37.8,25.7-70.1,67.5-70.1s47.5,16.9,51.1,43.7l-39.5,7.4c-.6-12.2-5.7-19.4-15.2-19.4-17.1,0-23.8,21.5-23.8,36.9s5.7,20.9,15.8,20.9,16-6.3,20.5-17.7l38.6,6.3c-10.5,27.9-33.8,43-63.7,43s-51.3-20.3-51.3-51.1Z"/>
    <path d="M1368.5,613.9l20.7-116.9,7-39.2h38l-7,39.2-1.9,10.1c8.9-7.8,19.6-12.2,32.5-12.2,24.5,0,39,18.1,34,46.6l-12.7,72.4h-38l12.2-69.6c1.9-10.5-3.2-16.7-12.4-16.7s-20.7,9.1-23.2,23.4l-11.2,62.9h-38Z"/>
  </g>
</svg>
