<?xml version="1.0" encoding="UTF-8"?>
<svg id="Vrstva_1" xmlns="http://www.w3.org/2000/svg" version="1.1" viewBox="0 0 1081.08 160.49">
  <!-- Generator: Adobe Illustrator 30.5.1, SVG Export Plug-In . SVG Version: 2.1.4 Build 3)  -->
  <defs>
    <style>
      .st0 {
        fill: #f75a0b;
      }
    </style>
  </defs>
  <g>
    <path class="st0" d="M750.75,141.64v-12.7c0-2.72,2.2-4.92,4.92-4.92h0c2.72,0,4.92-2.2,4.92-4.92v-23.97c0-2.72,2.2-4.92,4.92-4.92h0c2.72,0,4.92-2.2,4.92-4.92v-35.25c0-2.72,2.2-4.92,4.92-4.92h0c2.72,0,4.92-2.2,4.92-4.92v-23.97c0-2.72-2.2-4.92-4.92-4.92h0c-2.72,0-4.92-2.2-4.92-4.92v-1.42C770.45,2.2,772.66,0,775.38,0h29.56c2.72,0,4.92,2.2,4.92,4.92v1.42c0,2.72-2.2,4.92-4.92,4.92h0c-2.72,0-4.92,2.2-4.92,4.92v23.97c0,2.72-2.2,4.92-4.92,4.92h-.01c-2.72,0-4.92,2.2-4.92,4.92v35.25c0,2.72-2.2,4.92-4.92,4.92h0c-2.72,0-4.92,2.2-4.92,4.92v23.97c0,2.72-2.2,4.92-4.92,4.92h0c-2.72,0-4.92,2.2-4.92,4.92v12.7c0,2.72,2.2,4.92,4.92,4.92h46.27c2.72,0,4.92-2.2,4.92-4.92v-1.42c0-2.72,2.2-4.92,4.92-4.92h0c2.72,0,4.92,2.2,4.92,4.92v12.7c0,2.72-2.2,4.92-4.92,4.92h-85.68c-2.72,0-4.92-2.2-4.92-4.92v-1.42c0-2.72,2.2-4.92,4.92-4.92h0c2.72,0,4.92-2.2,4.92-4.92ZM846.28,117.67v12.7c0,2.72-2.2,4.92-4.92,4.92h-.01c-2.72,0-4.92-2.2-4.92-4.92v-12.7c0-2.72,2.2-4.92,4.92-4.92h.01c2.72,0,4.92,2.2,4.92,4.92Z"/>
    <path class="st0" d="M857.96,141.64v-35.25c0-2.72,2.2-4.92,4.92-4.92h0c2.72,0,4.92-2.2,4.92-4.92v-12.7c0-2.72,2.2-4.92,4.92-4.92h0c2.72,0,4.92-2.2,4.92-4.92v-1.43c0-2.72,2.2-4.92,4.92-4.92h9.86c2.72,0,4.92,2.2,4.92,4.92v1.43c0,2.72-2.2,4.92-4.92,4.92h0c-2.72,0-4.92,2.2-4.92,4.92v12.7c0,2.72-2.2,4.92-4.92,4.92h0c-2.72,0-4.92,2.2-4.92,4.92v23.97c0,2.72,2.2,4.92,4.92,4.92h0c2.72,0,4.92,2.2,4.92,4.92v1.42c0,2.72,2.2,4.92,4.92,4.92h9.85c2.72,0,4.92,2.2,4.92,4.92v1.42c0,2.72-2.2,4.92-4.92,4.92h-29.56c-2.72,0-4.92-2.2-4.92-4.92v-1.42c0-2.72-2.2-4.92-4.92-4.92h0c-2.72,0-4.92-2.2-4.92-4.92ZM917.08,61.29v1.42c0,2.72-2.2,4.92-4.92,4.92h-9.86c-2.72,0-4.92-2.2-4.92-4.92v-1.42c0-2.72,2.2-4.92,4.92-4.92h9.86c2.72,0,4.92,2.2,4.92,4.92ZM917.08,140.21v1.42c0,2.72-2.2,4.92-4.92,4.92h-.01c-2.72,0-4.92-2.2-4.92-4.92v-1.42c0-2.72,2.2-4.92,4.92-4.92h.01c2.72,0,4.92,2.2,4.92,4.92ZM926.93,119.09v-1.42c0-2.72,2.2-4.92,4.92-4.92h0c2.72,0,4.92-2.2,4.92-4.92v-12.7c0-2.72,2.2-4.92,4.92-4.92h0c2.72,0,4.92-2.2,4.92-4.92v-23.98c0-2.72-2.2-4.92-4.92-4.92h-19.71c-2.72,0-4.92-2.2-4.92-4.92v-1.42c0-2.72,2.2-4.92,4.92-4.92h39.42c2.72,0,4.92,2.2,4.92,4.92v35.25c0,2.72-2.2,4.92-4.92,4.92h-.01c-2.72,0-4.92,2.2-4.92,4.92v23.97c0,2.72-2.2,4.92-4.92,4.92h0c-2.72,0-4.92,2.2-4.92,4.92v12.7c0,2.72,2.2,4.92,4.92,4.92h0c2.72,0,4.92,2.2,4.92,4.92v1.42c0,2.72-2.2,4.92-4.92,4.92h-19.71c-2.72,0-4.92-2.2-4.92-4.92v-12.7c0-2.72-2.2-4.92-4.92-4.92h0c-2.72,0-4.92-2.2-4.92-4.92v-1.42c0-2.72,2.2-4.92,4.92-4.92h0c2.72,0,4.92-2.2,4.92-4.92ZM966.35,140.21v1.42c0,2.72-2.2,4.92-4.92,4.92h-.01c-2.72,0-4.92-2.2-4.92-4.92v-1.42c0-2.72,2.2-4.92,4.92-4.92h.01c2.72,0,4.92,2.2,4.92,4.92Z"/>
    <path class="st0" d="M982.54,130.37v-35.25c0-2.72,2.2-4.92,4.92-4.92h0c2.72,0,4.92-2.2,4.92-4.92v-35.25c0-2.72,2.2-4.92,4.92-4.92h0c2.72,0,4.92-2.2,4.92-4.92v-23.97c0-2.72-2.2-4.92-4.92-4.92h-9.85c-2.72,0-4.92-2.2-4.92-4.92v-1.42C982.54,2.2,984.75,0,987.47,0h29.56c2.72,0,4.92,2.2,4.92,4.92v35.25c0,2.72-2.2,4.92-4.92,4.92h0c-2.72,0-4.92,2.2-4.92,4.92v12.7c0,2.72,2.2,4.92,4.92,4.92h0c2.72,0,4.92,2.2,4.92,4.92v1.43c0,2.72-2.2,4.92-4.92,4.92h0c-2.72,0-4.92,2.2-4.92,4.92v1.42c0,2.72-2.2,4.92-4.92,4.92h-.01c-2.72,0-4.92,2.2-4.92,4.92v46.52c0,2.72-2.2,4.92-4.92,4.92h0c-2.72,0-4.92-2.2-4.92-4.92v-1.42c0-2.72-2.2-4.92-4.92-4.92h0c-2.72,0-4.92-2.2-4.92-4.92ZM1041.67,151.49v1.42c0,2.72-2.2,4.92-4.92,4.92h-29.57c-2.72,0-4.92-2.2-4.92-4.92v-1.42c0-2.72,2.2-4.92,4.92-4.92h29.57c2.72,0,4.92,2.2,4.92,4.92ZM1031.81,61.29v1.42c0,2.72-2.2,4.92-4.92,4.92h0c-2.72,0-4.92-2.2-4.92-4.92v-1.42c0-2.72,2.2-4.92,4.92-4.92h0c2.72,0,4.92,2.2,4.92,4.92ZM1051.52,130.37v-12.7c0-2.72,2.2-4.92,4.92-4.92h.01c2.72,0,4.92-2.2,4.92-4.92v-35.25c0-2.72-2.2-4.92-4.92-4.92h-.01c-2.72,0-4.92-2.2-4.92-4.92v-1.42c0-2.72-2.2-4.92-4.92-4.92h-9.85c-2.72,0-4.92-2.2-4.92-4.92v-1.42c0-2.72,2.2-4.92,4.92-4.92h19.71c2.72,0,4.92,2.2,4.92,4.92v1.42c0,2.72,2.2,4.92,4.92,4.92h0c2.72,0,4.92,2.2,4.92,4.92v1.42c0,2.72,2.2,4.92,4.92,4.92h0c2.72,0,4.92,2.2,4.92,4.92v35.25c0,2.72-2.2,4.92-4.92,4.92h0c-2.72,0-4.92,2.2-4.92,4.92v12.7c0,2.72-2.2,4.92-4.92,4.92h0c-2.72,0-4.92,2.2-4.92,4.92v1.42c0,2.72-2.2,4.92-4.92,4.92h-9.86c-2.72,0-4.92-2.2-4.92-4.92v-1.42c0-2.72,2.2-4.92,4.92-4.92h0c2.72,0,4.92-2.2,4.92-4.92Z"/>
  </g>
  <g>
    <path d="M200.23,160.49c-33.82,0-59.91-22.11-59.91-59.24s26.09-59.24,59.46-59.24c37.14,0,55.49,26.75,55.49,57.48v9.95s-79.36,0-79.36,0c1.99,15.7,9.73,24.98,24.32,24.98,10.61,0,17.68-4.86,20.56-13.48h34.04c-4.86,24.54-25.42,39.57-54.6,39.57ZM176.57,89.75h44.43c0-11.49-7.08-21.88-21.22-21.88-12.82,0-20.56,7.96-23.21,21.88Z"/>
    <path d="M327.1,42c30.73,0,49.52,17.68,52.61,43.77h-34.93c-1.33-9.51-7.08-17.02-18.13-17.02-14.37,0-22.33,12.6-22.33,32.49,0,20.12,7.96,32.27,22.33,32.27,11.05,0,16.8-7.51,18.13-17.02h34.93c-3.1,26.09-21.89,43.99-52.61,43.99-34.7,0-59.9-22.33-59.9-59.24,0-36.92,25.2-59.24,59.9-59.24Z"/>
    <path d="M449.27,160.49c-35.59,0-60.35-22.33-60.35-59.24,0-36.92,24.76-59.24,60.35-59.24,35.37,0,60.13,22.33,60.13,59.24,0,36.92-24.76,59.24-60.13,59.24ZM449.27,133.96c15.25,0,22.99-12.16,22.99-32.72,0-20.56-7.74-32.72-22.99-32.72s-23.21,12.16-23.21,32.72c0,20.56,7.96,32.72,23.21,32.72Z"/>
    <path d="M599.05,78.03c-3.98-.66-7.74-.88-11.93-.88-16.8,0-29.62,9.95-29.62,31.17v49.52s-36.92,0-36.92,0V44.65s36.48,0,36.48,0v24.1c5.74-16.8,17.91-25.86,33.82-25.86,3.09,0,6.19.22,8.18,1.1v34.04Z"/>
    <path d="M688.04,141.04c-5.75,11.27-19.01,19.45-34.71,19.45-30.5,0-49.51-24.76-49.51-59.24,0-34.49,19.01-59.24,49.51-59.24,15.92,0,28.74,8.18,34.26,19.45V0s36.92,0,36.92,0v157.84s-36.47,0-36.47,0v-16.8ZM688.26,98.81c0-19.01-8.62-30.51-23.43-30.51-15.47,0-23.87,12.6-23.87,32.94,0,20.56,8.4,32.72,23.87,32.72,14.81,0,23.43-11.5,23.43-30.29v-4.86Z"/>
    <path d="M103.67,97.27c17.47-7.07,31.17-22.11,31.17-45.54C134.85,17.69,111.86,0,73.39,0H0v29.4h75.05c12.27,0,22.22,9.95,22.22,22.22h0c0,12.27-9.95,22.22-22.22,22.22H0v84s37.36,0,37.36,0v-54.6h29.62l31.83,54.6h41.12s-36.25-60.57-36.25-60.57Z"/>
    <rect x="0" y="29.4" width="44.43" height="44.43" rx="22.22" ry="22.22"/>
  </g>
</svg>
