<?xml version="1.0" encoding="utf-8"?>
<!-- Generator: Adobe Illustrator 27.9.0, SVG Export Plug-In . SVG Version: 6.00 Build 0)  -->
<svg version="1.1" xmlns="http://www.w3.org/2000/svg" xmlns:xlink="http://www.w3.org/1999/xlink" x="0px" y="0px"
	 viewBox="0 0 260 260" style="enable-background:new 0 0 260 260;" xml:space="preserve">
<style type="text/css">
	.st0{fill:#0B2838;}
	.st1{fill:#083248;}
	.st2{fill:#031B28;}
	.st3{fill:#FFFFFF;}
</style>
<g id="Vrstva_1">
	<g>
		<g>
			<g>
				<path d="M383.1-937.6H655l-97.6-97.6H433.8c-22.8,0-44.7,9.1-60.8,25.2l-62.3,62.3c-16.1,16.1-25.2,38-25.2,60.8V-774h97.6
					V-937.6z"/>
				<path d="M572.5-748.2H300.6l97.6,97.6h123.7c22.8,0,44.7-9.1,60.8-25.2l62.3-62.3c16.1-16.1,25.2-38,25.2-60.8v-112.9h-97.6
					V-748.2z"/>
				<path d="M477.8-911.8c-38,0-68.9,30.8-68.9,68.9c0,38,30.8,68.9,68.9,68.9s68.9-30.8,68.9-68.9
					C546.7-880.9,515.8-911.8,477.8-911.8"/>
			</g>
		</g>
	</g>
	<g>
		<g>
			<g>
				<path class="st0" d="M1124.3-761.2h271.9l-97.6-97.6H1175c-22.8,0-44.7,9.1-60.8,25.2l-62.3,62.3c-16.1,16.1-25.2,38-25.2,60.8
					v112.9h97.6V-761.2z"/>
				<path class="st0" d="M1313.7-571.9h-271.9l97.6,97.6H1263c22.8,0,44.7-9.1,60.8-25.2l62.3-62.3c16.1-16.1,25.2-38,25.2-60.8
					v-112.9h-97.6V-571.9z"/>
				<path class="st0" d="M1219-735.4c-38,0-68.9,30.8-68.9,68.9c0,38,30.8,68.9,68.9,68.9c38,0,68.9-30.8,68.9-68.9
					C1287.9-704.6,1257.1-735.4,1219-735.4"/>
			</g>
		</g>
	</g>
	<g>
		<g>
			<g>
				<path class="st1" d="M1257-1131.8h271.9l-97.6-97.6h-123.7c-22.8,0-44.7,9.1-60.8,25.2l-62.3,62.3c-16.1,16.1-25.2,38-25.2,60.8
					v112.9h97.6V-1131.8z"/>
				<path class="st1" d="M1446.4-942.4h-271.9l97.6,97.6h123.7c22.8,0,44.7-9.1,60.8-25.2l62.3-62.3c16.1-16.1,25.2-38,25.2-60.8
					V-1106h-97.6V-942.4z"/>
				<path class="st1" d="M1351.7-1106c-38,0-68.9,30.8-68.9,68.9c0,38,30.8,68.9,68.9,68.9c38,0,68.9-30.8,68.9-68.9
					C1420.6-1075.1,1389.7-1106,1351.7-1106"/>
			</g>
		</g>
	</g>
	<g>
		<g>
			<g>
				<path class="st2" d="M-383.8-1318.1h271.9l-97.6-97.6h-123.7c-22.8,0-44.7,9.1-60.8,25.2l-62.3,62.3
					c-16.1,16.1-25.2,38-25.2,60.8v112.9h97.6V-1318.1z"/>
				<path class="st2" d="M-194.4-1128.7h-271.9l97.6,97.6h123.7c22.8,0,44.7-9.1,60.8-25.2l62.3-62.3c16.1-16.1,25.2-38,25.2-60.8
					v-112.9h-97.6V-1128.7z"/>
				<path class="st2" d="M-289.1-1292.2c-38,0-68.9,30.8-68.9,68.9c0,38,30.8,68.9,68.9,68.9s68.9-30.8,68.9-68.9
					C-220.2-1261.4-251.1-1292.2-289.1-1292.2"/>
			</g>
		</g>
	</g>
	<rect x="1411.7" y="-20" width="300" height="300"/>
	<g>
		<g>
			<g>
				<path class="st3" d="M1497.7,66h183.8l-66-66H1532c-15.4,0-30.2,6.1-41.1,17l-42.1,42.1c-10.9,10.9-17,25.7-17,41.1v76.3h66V66z
					"/>
				<path class="st3" d="M1625.8,194h-183.8l66,66h83.6c15.4,0,30.2-6.1,41.1-17l42.1-42.1c10.9-10.9,17-25.7,17-41.1V83.4h-66V194z
					"/>
				<path class="st3" d="M1561.7,83.4c-25.7,0-46.6,20.8-46.6,46.6c0,25.7,20.8,46.6,46.6,46.6s46.6-20.8,46.6-46.6
					C1608.3,104.3,1587.5,83.4,1561.7,83.4"/>
			</g>
		</g>
	</g>
	<rect x="949" y="-20" width="300" height="300"/>
	<g>
		<g>
			<g>
				<path class="st3" d="M1039.9,70.9h169.7L1148.7,10h-77.2c-14.2,0-27.9,5.7-37.9,15.7l-38.9,38.9C984.7,74.6,979,88.3,979,102.5
					V173h60.9V70.9z"/>
				<path class="st3" d="M1158.1,189.1H988.4l60.9,60.9h77.2c14.2,0,27.9-5.7,37.9-15.7l38.9-38.9c10.1-10.1,15.7-23.7,15.7-37.9V87
					h-60.9V189.1z"/>
				<path class="st3" d="M1099,87c-23.7,0-43,19.2-43,43c0,23.7,19.2,43,43,43c23.7,0,43-19.2,43-43C1142,106.3,1122.8,87,1099,87"
					/>
			</g>
		</g>
	</g>
	<rect x="453.6" y="-20" width="300" height="300"/>
	<g>
		<g>
			<g>
				<path class="st3" d="M549.4,75.8H705L649.2,20h-70.7c-13,0-25.6,5.2-34.8,14.4L508,70c-9.2,9.2-14.4,21.7-14.4,34.8v64.6h55.8
					V75.8z"/>
				<path class="st3" d="M657.8,184.2H502.2l55.8,55.8h70.7c13,0,25.6-5.2,34.8-14.4l35.6-35.6c9.2-9.2,14.4-21.7,14.4-34.8V90.6
					h-55.8V184.2z"/>
				<path class="st3" d="M603.6,90.6c-21.8,0-39.4,17.6-39.4,39.4c0,21.8,17.6,39.4,39.4,39.4c21.8,0,39.4-17.6,39.4-39.4
					C643,108.2,625.4,90.6,603.6,90.6"/>
			</g>
		</g>
	</g>
	<rect x="-20" y="-20" class="st3" width="300" height="300"/>
	<g>
		<g>
			<g>
				<path d="M80.8,80.8h141.4L171.4,30h-64.3c-11.9,0-23.2,4.7-31.6,13.1L43.1,75.5C34.7,83.9,30,95.2,30,107.1v58.7h50.8V80.8z"/>
				<path d="M179.2,179.2H37.8L88.6,230h64.3c11.9,0,23.2-4.7,31.6-13.1l32.4-32.4c8.4-8.4,13.1-19.8,13.1-31.6V94.2h-50.8V179.2z"
					/>
				<path d="M130,94.2c-19.8,0-35.8,16-35.8,35.8c0,19.8,16,35.8,35.8,35.8s35.8-16,35.8-35.8C165.8,110.2,149.8,94.2,130,94.2"/>
			</g>
		</g>
	</g>
	<text transform="matrix(1 0 0 1 68.3125 -76.9427)" style="font-family:'MyriadPro-Regular'; font-size:80.1685px;">200</text>
	<text transform="matrix(1 0 0 1 538.0126 -76.9427)" style="font-family:'MyriadPro-Regular'; font-size:80.1685px;">220</text>
	<text transform="matrix(1 0 0 1 1032.6416 -76.9427)" style="font-family:'MyriadPro-Regular'; font-size:80.1685px;">240</text>
	<text transform="matrix(1 0 0 1 1500.0527 -76.9427)" style="font-family:'MyriadPro-Regular'; font-size:80.1685px;">260</text>
</g>
<g id="Vrstva_2">
</g>
</svg>
